<svg width="339" height="371" viewBox="0 0 339 371" fill="none" xmlns="http://www.w3.org/2000/svg">
<path d="M261.973 304.043C262.087 304.156 262.153 304.309 262.157 304.469C262.161 304.629 262.102 304.785 261.993 304.903C236.763 333.223 204.903 356.543 169.513 370.253C169.147 370.394 168.739 370.391 168.373 370.243C103.323 344.083 53.9635 290.873 26.3035 226.913C17.8968 207.473 11.8101 188.543 8.04348 170.123C7.23682 166.183 6.42682 162.23 5.61348 158.263C3.17348 146.336 1.47348 133.22 0.513476 118.913C-0.476524 104.113 -0.48652 88.663 4.67348 75.473C6.49348 70.843 8.85348 67.903 13.1235 64.483C35.8635 46.2363 60.6235 31.8063 87.4035 21.193C90.7835 19.853 96.8735 17.6363 105.673 14.543C112.953 11.9763 124.527 8.62299 140.393 4.48299C144.88 3.30966 148.02 2.60632 149.813 2.37299C154.153 1.81299 157.893 0.512988 162.443 0.262988C168.793 -0.0870123 177.493 -0.427007 183.643 1.64299C183.942 1.7426 184.255 1.80311 184.573 1.82299C186.853 1.94966 191.443 2.90632 198.343 4.69299C210.103 7.72632 221.053 10.8763 231.193 14.143C265.033 25.0563 295.913 41.5497 323.833 63.623C329.103 67.793 332.323 71.273 334.053 77.243C335.223 81.313 336.303 84.493 336.843 88.533C338.063 97.7796 338.353 107.07 337.713 116.403C337.123 124.953 336.943 131.393 335.673 138.073C335.64 138.24 335.097 141.783 334.043 148.703C330.243 173.603 324.14 196.463 315.733 217.283C310.32 230.703 304.053 243.783 296.933 256.523C296.878 256.624 296.801 256.71 296.707 256.775C296.612 256.841 296.504 256.883 296.391 256.9C296.277 256.916 296.162 256.906 296.053 256.87C295.944 256.834 295.845 256.774 295.763 256.693L275.783 236.713C275.654 236.58 275.569 236.409 275.542 236.226C275.515 236.042 275.547 235.856 275.633 235.693C288.583 211.133 298.553 184.243 303.473 156.953C304.76 149.846 305.9 142.67 306.893 135.423C306.973 134.836 307.453 130.55 308.333 122.563C309.383 112.943 309.643 104.853 309.143 95.923C308.99 93.243 308.273 90.343 306.993 87.223C306.856 86.8951 306.636 86.6061 306.353 86.383C278.533 64.443 247.38 48.4697 212.893 38.463C201.833 35.2563 192.803 32.8963 185.803 31.383C179.263 29.9697 175.54 29.233 174.633 29.173C169.563 28.863 165.163 28.773 160.003 29.763C153.837 30.9497 149.96 31.7397 148.373 32.133C145.473 32.853 137.933 34.903 125.753 38.283C115.053 41.2563 103.533 45.4097 91.1935 50.743C69.8135 59.9763 49.9801 71.8663 31.6935 86.413C31.4312 86.6226 31.2282 86.891 31.1035 87.193C30.1101 89.5663 29.5235 91.403 29.3435 92.703C28.2701 100.17 28.5001 111.093 30.0335 125.473C31.4135 138.406 32.6268 147.473 33.6735 152.673C34.6535 157.513 35.4401 161.43 36.0335 164.423C37.1635 170.083 38.4935 174.003 40.0535 180.273C41.6401 186.626 44.7002 195.566 49.2335 207.093C71.4435 263.573 112.023 311.963 166.903 338.413C168.303 339.093 169.483 339.196 170.443 338.723C197.597 325.536 221.32 307.5 241.613 284.613C241.669 284.55 241.737 284.499 241.814 284.463C241.89 284.427 241.973 284.407 242.057 284.404C242.141 284.402 242.225 284.416 242.304 284.447C242.382 284.477 242.454 284.524 242.513 284.583L261.973 304.043Z" fill="black"/>
<path d="M168.893 323.083C168.86 323.14 168.806 323.182 168.743 323.2C168.68 323.219 168.612 323.213 168.553 323.183C142.94 309.983 120.887 292.103 102.393 269.543C80.0667 242.303 64.0701 211.82 54.4034 178.093C51.0834 166.5 48.5234 154.933 46.7234 143.393C46.2501 140.373 45.4101 134.03 44.2034 124.363C42.9734 114.493 42.7834 105.593 43.2934 96.4032C43.312 96.1145 43.3921 95.833 43.5284 95.5778C43.6646 95.3225 43.8538 95.0993 44.0834 94.9232C68.8567 76.0832 96.2101 62.1799 126.143 53.2132C133.69 50.9532 139.023 49.4232 142.143 48.6232C150.237 46.5432 154.58 45.4299 155.173 45.2832C159.953 44.1232 164.417 43.5399 168.563 43.5332C168.688 43.5332 168.808 43.5827 168.896 43.6709C168.984 43.759 169.033 43.8785 169.033 44.0032V69.9432C169.033 70.1076 169.099 70.2653 169.215 70.3816C169.331 70.4979 169.489 70.5632 169.653 70.5632C173.083 70.5332 177.873 70.5132 181.323 71.2332C183.617 71.7065 186.553 72.2532 190.133 72.8732C193.187 73.3932 196.087 74.1165 198.833 75.0432C227.273 84.6565 247.71 102.86 260.143 129.653C262.197 134.067 264.07 139.567 265.763 146.153C267.283 152.06 268.227 157.793 268.593 163.353C270.2 187.687 263.76 209.893 249.273 229.973C249.229 230.038 249.209 230.116 249.216 230.193C249.224 230.27 249.258 230.341 249.313 230.393C278.94 260.093 295.57 276.747 299.203 280.353C304.703 285.813 309.363 295.973 303.813 303.173C297.113 311.853 286.273 307.943 279.533 301.253C267.033 288.847 250.197 272.03 229.023 250.803C228.962 250.743 228.88 250.706 228.794 250.701C228.708 250.695 228.622 250.721 228.553 250.773C220.233 256.887 210.993 261.687 200.833 265.173C197.747 266.227 195.093 266.983 192.873 267.443C188.513 268.353 185.803 269.333 182.083 269.653C177.763 270.033 173.6 270.273 169.593 270.373C169.444 270.376 169.302 270.437 169.197 270.544C169.092 270.65 169.033 270.794 169.033 270.943L169.043 322.813C169.044 322.859 169.038 322.901 169.027 322.935C169.017 322.968 169.001 322.992 168.983 323.003C168.93 323.043 168.9 323.07 168.893 323.083ZM240.093 170.513C240.093 151.656 232.603 133.572 219.269 120.238C205.935 106.904 187.85 99.4132 168.993 99.4132C150.137 99.4132 132.052 106.904 118.718 120.238C105.384 133.572 97.8934 151.656 97.8934 170.513C97.8934 189.37 105.384 207.455 118.718 220.789C132.052 234.122 150.137 241.613 168.993 241.613C187.85 241.613 205.935 234.122 219.269 220.789C232.603 207.455 240.093 189.37 240.093 170.513Z" fill="#00AAAA"/>
</svg>
